<svg xmlns="http://www.w3.org/2000/svg" viewBox="0 0 64 64" fill="none">
  <g fill="#FF6B35">
    <path d="M16 14c-3 0-6 2-7 6-3 1-5 4-5 8 0 3 2 6 5 7v9a4 4 0 0 0 4 4h6V32l-3-3c-1-1-1-3 0-4 1-1 3-1 4 0l5 5h6V14H16z" opacity=".95"/>
    <path d="M48 14c3 0 6 2 7 6 3 1 5 4 5 8 0 3-2 6-5 7v9a4 4 0 0 1-4 4h-6V32l3-3c1-1 1-3 0-4-1-1-3-1-4 0l-5 5h-6V14h15z" opacity=".95"/>
  </g>
  <ellipse cx="32" cy="40" rx="15" ry="13" fill="#FF8F55"/>
  <circle cx="26" cy="37" r="2.4" fill="#1B3B5A"/>
  <circle cx="38" cy="37" r="2.4" fill="#1B3B5A"/>
  <ellipse cx="32" cy="44" rx="3.2" ry="2.4" fill="#1B3B5A"/>
  <path d="M32 46c0 3 0 4 3 4" stroke="#1B3B5A" stroke-width="2" stroke-linecap="round" fill="none"/>
  <path d="M32 46c0 3 0 4-3 4" stroke="#1B3B5A" stroke-width="2" stroke-linecap="round" fill="none"/>
</svg>
