<svg xmlns="http://www.w3.org/2000/svg" viewBox="0 0 600 200" fill="none">
  <path d="M55,105v-8h-18v60h18v-22c0-12,5-17,17-17c3,0,5,0,9,1v-16c-4-1-7-1-10-1c-8,0-14,3-16,10v-7Z" fill="#F2703A"/>
  <path d="M93,115c0-16,10-25,25-25c8,0,15,3,20,10l10-10c-7-8-17-13-30-13c-23,0-39,14-39,38c0,24,15,38,38,38c14,0,25-5,31-15l-11-8c-4,6-11,10-20,10c-14,0-24-9-24-25Z" fill="#F2703A"/>
  <path d="M194,157c22,0,36-16,36-42c0-26-14-42-36-42c-22,0-36,16-36,42c0,26,14,42,36,42Zm0-13c-13,0-21-11-21-29c0-18,8-29,21-29c13,0,21,11,21,29c0,18-8,29-21,29Z" fill="#F2703A"/>
  <path d="M242,107c0-15,10-24,25-24c9,0,16,4,21,10l10-10c-7-8-17-13-31-13c-23,0-39,15-39,37c0,23,15,37,38,37c15,0,26-6,33-15l-11-9c-4,6-11,10-21,10c-13,0-24-9-24-23Z" fill="#F2703A"/>
  <path d="M345,86v-6h-16v60h16v-32c0-11,6-16,18-16c3,0,6,0,9,1v-15c-4-1-7-1-10-1c-10,0-17,5-17,9Z" fill="#F2703A"/>
  <path d="M383,115c0-16,10-25,25-25c8,0,15,3,20,10l10-10c-7-8-17-13-30-13c-23,0-39,14-39,38c0,24,15,38,38,38c14,0,25-5,31-15l-11-8c-4,6-11,10-20,10c-14,0-24-9-24-25Z" fill="#F2703A"/>
  <path d="M450,93h-16v6c-3-5-8-8-15-8c-12,0-21,8-21,22c0,14,9,21,21,21c7,0,13-3,17-9v7h14v-39Zm-16,26c0,7-4,11-10,11c-6,0-10-4-10-11c0-7,4-11,10-11c6,0,10,4,10,11Z" fill="#F2703A"/>
  <path d="M472,112c0-17,11-27,27-27c10,0,17,4,23,11l10-10c-7-8-18-14-33-14c-24,0-40,16-40,40c0,24,16,40,40,40c15,0,26-6,33-16l-11-8c-4,6-12,11-22,11c-15,0-27-10-27-27Z" fill="#F2703A"/>
  <path d="M557,86v-6h-16v60h16v-32c0-11,6-16,18-16c3,0,6,0,9,1v-15c-4-1-7-1-10-1c-10,0-17,5-17,9Z" fill="#F2703A"/>
</svg>
