<?xml version="1.0" encoding="utf-8"?>
<svg version="1.1" xmlns="http://www.w3.org/2000/svg" viewBox="0 0 494 258">
<path fill="none" stroke="#F2703A" stroke-width="23.8327" stroke-linecap="round" stroke-linejoin="round" stroke-miterlimit="10" d="M123.4,79.8c1,13.1-2.3,23.7-9.8,31.9c-7.7,8.4-19.2,13.2-34.3,14.4c-9.7,0.7-17.3,0.8-22.6,0.3L52.3,86c-1.3-10.3-3.2-24.6-5.8-42.8c7.7-1.7,15.8-2.9,24.3-3.6c15.2-1.2,27.3,1.5,36.4,8C116.9,54.5,122.3,65.3,123.4,79.8z M101.8,88.2c-0.4-5.3-2.4-9.1-6-11.4c-3-1.9-6.7-2.6-11.1-2.1l1.8,34.2c4.6-0.6,8.2-2.4,10.9-5.4C100.8,99.9,102.3,94.8,101.8,88.2z M199.2,62.8c0.5,6.7-0.9,12.7-4.2,18.2c-2.9,4.7-6.8,8.3-11.6,10.6c1.2,1.6,4,4.8,8.5,9.7c2.2,2.2,5.6,5.2,10.1,8.8c-1.6,0.7-5.3,2.6-10.8,5.5c-3.9,2.1-7.6,4.3-11,6.3c-1.1-1.2-3.7-4.4-7.7-9.6c-1.9-2.6-4.6-7.1-8.3-13.4l-0.1,0l0.9,19.1l-30.4,2.3c-1-7.9-2.5-20.9-4.6-39c-1.1-10.7-3-25.5-5.6-44.3c9.8-1.8,18.8-3,27-3.7C181.6,31.1,197.6,40.9,199.2,62.8z M175.6,76.4c-0.3-3.4-1.9-5.8-4.9-7.1c-2.2-0.9-4.9-1.2-8.1-0.8l1.1,18.7c3-0.2,5.6-1.1,7.8-2.6C174.5,82.6,175.8,79.9,175.6,76.4z M232.1,104.5c0.2,2.9-0.8,5.4-3.1,7.5c-2.3,2.1-5,3.3-8.2,3.5c-3.4,0.3-6.3-0.5-8.8-2.2c-2.6-1.8-4-4.1-4.2-7c-0.2-2.9,0.8-5.4,3-7.5c2.2-2.1,5-3.2,8.5-3.5c3.3-0.3,6.2,0.5,8.7,2.2C230.5,99.2,231.9,101.5,232.1,104.5z"/>
<path fill="none" stroke="#F2703A" stroke-width="23.8327" stroke-linecap="round" stroke-linejoin="round" stroke-miterlimit="10" d="M102.1,170.4c0.6,10.4-2.1,18.9-8.3,25.6c-6.2,6.7-14.7,10.3-25.6,11l0.4,16.8l-30,1.9l-4.1-40.8c-1.1-10.5-2.8-24.9-4.9-43.2c5.6-1.5,13.8-2.6,24.8-3.3c13.3-0.8,24.1,1.2,32.5,6C96.2,149.9,101.3,158.6,102.1,170.4z M80.1,181c-0.4-5.7-3.9-8.3-10.6-7.9c-0.8,0.1-1.6,0.1-2.4,0.3l0.7,19.2C76.4,191.8,80.5,187.9,80.1,181z M160.7,133.3l-0.2,34.9c-1.3-0.1-4.3-0.3-8.8-0.6c-3.1-0.1-6.4-0.1-10.1,0.1l-0.2,10.5c4-0.1,10.5-0.6,19.5-1.5c-0.3,1.4-0.8,3.9-1.4,7.7c-0.4,2.3-0.7,4.9-0.9,7.8c-1.1-0.2-3.7-0.3-7.9-0.5c-2,0-4.9,0.2-8.7,0.4l0.2,12.3c2.7-0.2,7.7-0.8,15-1.7c1.4-0.2,3.6-0.8,6.7-1.8c-0.2,1.2-0.7,3.9-1.5,8.3c-0.4,2.3-0.8,5.1-1.3,8.6l-48.7,3.1l-4.3-42.9c-0.9-9.8-2.4-23.5-4.7-41.1L160.7,133.3z M240.4,159.9c0.4,6.7-1.1,12.8-4.5,18.2c-3,4.7-6.9,8.3-11.8,10.5c1.2,1.6,4,4.9,8.4,9.9c2.2,2.3,5.6,5.3,10.1,9c-1.7,0.7-5.3,2.5-11,5.4c-3.9,2.1-7.7,4.2-11.1,6.2c-1.1-1.3-3.7-4.5-7.7-9.8c-1.8-2.7-4.6-7.2-8.2-13.6l-0.1,0l0.6,19.2l-30.6,1.9c-0.9-8-2.3-21.1-4.1-39.3c-1-10.8-2.7-25.7-5-44.7c9.9-1.7,19-2.8,27.2-3.3C223.1,127.8,239.1,137.8,240.4,159.9z M216.5,173.3c-0.2-3.5-1.8-5.9-4.8-7.2c-2.2-1-4.9-1.3-8.1-0.9l0.8,18.8c3-0.2,5.7-1,7.9-2.6C215.3,179.5,216.7,176.8,216.5,173.3z M316.6,155.1c0.4,6.7-1.1,12.8-4.5,18.2c-3,4.7-6.9,8.3-11.8,10.5c1.2,1.6,4,4.9,8.4,9.9c2.2,2.3,5.6,5.3,10.1,9c-1.7,0.7-5.3,2.5-11,5.4c-4,2.1-7.7,4.2-11.1,6.2c-1.1-1.3-3.7-4.5-7.7-9.8c-1.8-2.7-4.6-7.2-8.2-13.6l-0.1,0l0.6,19.2l-30.6,1.9c-0.9-8-2.3-21.1-4.1-39.3c-1-10.8-2.7-25.7-5-44.7c9.9-1.7,19-2.8,27.2-3.3C299.3,122.9,315.2,133,316.6,155.1z M292.7,168.5c-0.2-3.5-1.8-5.9-4.8-7.2c-2.2-1-4.9-1.3-8.1-0.9l0.8,18.8c3-0.2,5.7-1,7.9-2.6C291.5,174.7,292.9,172,292.7,168.5z M393.2,159.1c0.8,12.9-1.8,24-7.9,33.4c-6.3,9.8-14.9,15-25.7,15.7c-11.1,0.7-20.4-3.4-27.9-12.4c-7-8.4-11-19.1-11.8-32c-0.9-13.8,2-24.8,8.6-33.1c6.2-7.8,14.7-12.1,25.5-12.7c10.6-0.7,19.4,2.5,26.6,9.5C388.2,134.8,392.4,145.4,393.2,159.1z M367.7,170.4c-0.6-10.2-4.4-15-11.2-14.6c-6.6,0.4-9.6,5.8-9,16c0.3,4.1,1.4,7.9,3.3,11.3c2.2,3.9,4.8,5.7,7.6,5.5c2.8-0.2,5.1-2.4,7-6.6C367.2,178.2,367.9,174.3,367.7,170.4z M461.3,114.3l0.6,34.6c-1.4-0.1-3.7-0.3-6.8-0.4c-1.9,0-5,0.1-9.4,0.3c-0.1,2.2-0.1,7.4-0.2,15.7c0.1,8,0.2,19.8,0.2,35.4l-26.3,1.7c-0.7-7.4-2-19-3.8-34.7c-0.7-5.5-1.4-10.8-2.1-16l-8.6,0.9l-7.7,1.3l-3.5-34.4L461.3,114.3z"/>
</svg>
