<svg xmlns="http://www.w3.org/2000/svg" viewBox="0 0 600 200" fill="#1B3A5C">
  <path d="M50,120h25v25c-8,3-17,5-27,5C27,150,17,139,17,120c0-19,10-30,31-30c6,0,12,1,17,3l5-12c-6-2-14-4-23-4c-28,0-47,17-47,43c0,26,18,43,46,43c11,0,21-2,30-7v-56H50v20Z"/>
  <path d="M121,95v-5h-15v55h15v-27c0-12,5-17,16-17c3,0,5,0,8,1V88c-3-1-6-1-9-1c-9,0-15,4-15,8Z"/>
  <path d="M156,111c0-15,9-24,23-24c14,0,23,9,23,24c0,15-9,24-23,24c-14,0-23-9-23-24Zm31,0c0-9-3-14-8-14c-5,0-8,5-8,14c0,9,3,14,8,14c5,0,8-5,8-14Z"/>
  <path d="M238,132l-9-10c11-5,17-13,17-23c0-14-9-23-24-23h-23v55h14v-22h5l8,22h15l-9-19c10-3,14-11,14-20v-2h-13v2c0,5-2,8-6,10l-5-6c-2-2-5-4-9-4c-6,0-10,4-10,11c0,6,3,10,10,12l13,5c5,2,9,5,11,8l8-8c-2-3-6-6-11-8Zm-29-15c-4-2-6-5-6-9c0-4,2-7,6-7c4,0,7,2,8,5l5,5l-13,6Z"/>
  <path d="M305,95v-5h-15v55h15v-27c0-12,5-17,16-17c3,0,5,0,8,1V88c-3-1-6-1-9-1c-9,0-15,4-15,8Z"/>
  <path d="M340,111c0-15,9-24,23-24c14,0,23,9,23,24c0,15-9,24-23,24c-14,0-23-9-23-24Zm31,0c0-9-3-14-8-14c-5,0-8,5-8,14c0,9,3,14,8,14c5,0,8-5,8-14Z"/>
  <path d="M398,150c20,0,33-15,33-39c0-24-13-39-33-39c-20,0-33,15-33,39c0,24,13,39,33,39Zm0-12c-12,0-19-10-19-27c0-17,7-27,19-27c12,0,19,10,19,27c0,17-7,27-19,27Z"/>
  <path d="M443,105c0-14,9-23,23-23c8,0,15,3,19,9l9-9c-6-7-16-12-28-12c-21,0-35,14-35,39c0,24,13,39,34,39c13,0,24-5,30-14l-10-8c-4,5-10,9-19,9c-13,0-23-9-23-24v-6Zm33-12c-5,0-8,5-8,14v3h19v-3c0-9-3-14-8-14h-3Z"/>
  <path d="M531,95v-5h-15v47c-3,5-8,9-14,9c-4,0-6-2-6-5h-13c0,10,8,17,19,17c7,0,14-3,19-9c4,5,10,9,18,9c14,0,25-10,25-27V90h-15v27c0,12-5,17-12,17c-5,0-8-3-8-9v-30Z"/>
</svg>
