<svg xmlns="http://www.w3.org/2000/svg" viewBox="0 0 550 200" fill="#3793A3">
  <path d="M50,120h25v25c-8,3-17,5-27,5C27,150,17,139,17,120c0-19,10-30,31-30c6,0,12,1,17,3l5-12c-6-2-14-4-23-4c-28,0-47,17-47,43c0,26,18,43,46,43c11,0,21-2,30-7v-56H50v20Z"/>
  <path d="M121,95v-5h-15v55h15v-29c0-10,5-15,14-15s12,4,12,13v31h15v-34c0-15,7-23,18-23c9,0,13,5,13,15v42h15v-44c0-18-9-28-24-28c-10,0-18,4-23,11c-4-7-11-11-21-11c-10,0-18,4-21,11v-9h-13Z"/>
  <path d="M253,111c0-15,9-24,23-24c14,0,23,9,23,24c0,15-9,24-23,24c-14,0-23-9-23-24Zm31,0c0-9-3-14-8-14c-5,0-8,5-8,14c0,9,3,14,8,14c5,0,8-5,8-14Z"/>
  <path d="M311,150c20,0,33-15,33-39c0-24-13-39-33-39c-20,0-33,15-33,39c0,24,13,39,33,39Zm0-12c-12,0-19-10-19-27c0-17,7-27,19-27c12,0,19,10,19,27c0,17-7,27-19,27Z"/>
  <path d="M366,105c0-14,9-23,23-23c8,0,15,3,19,9l9-9c-6-7-16-12-28-12c-21,0-35,14-35,39c0,24,13,39,34,39c13,0,24-5,30-14l-10-8c-4,5-10,9-19,9c-13,0-23-9-23-24v-6Zm33-12c-5,0-8,5-8,14v3h19v-3c0-9-3-14-8-14h-3Z"/>
  <path d="M442,95v-5h-15v47c-3,5-8,9-14,9c-4,0-6-2-6-5h-13c0,10,8,17,19,17c7,0,14-3,19-9c4,5,10,9,18,9c14,0,25-10,25-27V90h-15v27c0,12-5,17-12,17c-5,0-8-3-8-9v-30Z"/>
</svg>
