<svg xmlns="http://www.w3.org/2000/svg" viewBox="0 0 1253 507" fill="#0063a4">
  <path d="M132.7,435.2c3.1,0,5.1.9,6.1,2.8.9,2.7,1.4,5.6,1.4,8.8-.1,2.5-.1,4.7-.1,6.6v1.1c.1,16.1.7,30.5,1.8,43.2-.4,1-1.3,1.6-2.5,1.6s-2.3-1.4-2.3-4.4c-.6-9-1-15.9-1.1-20.5-5.3.8-12.6,1.2-22.1,1.3h-1.2c-.6,5.9-.9,11.3-.8,16,0,3.9.3,6.4.5,7.6-.4,1.1-1.1,1.7-2.3,1.7h-.3c-1.6,0-2.3-1.8-2.4-5.4,0-.4,0-1.8-.2-4.2,0-4,.6-13.2,1.8-27.6,0-8.7,1.2-15.6,3.8-20.8,2-2.9,3.9-4.6,5.9-5.1,5.7-1.8,10.4-2.7,14-2.7ZM113.1,471.8c9-.1,16.6-.6,22.7-1.5,0-1-.1-4.8-.2-11.5v-13c0-4.5-.7-6.8-2-6.8h-.3c-4.9,0-9.6,1.1-14.3,3.1-2.3,2.7-3.6,5.4-4,8.2-.8,2.6-1.3,9.5-1.7,20.8-.2.2-.2.4-.2.7Z"/>
  <path d="M152.6,435.3h.7c1.6,0,2.4.7,2.4,2v9.1c.1,3.5.6,11.4,1.7,23.5-.2,7.5-.2,14.3-.2,20.3.3,3.2.4,4.9.4,5.3,4.1-.6,10.6-1,19.4-1.1h1c1.6,0,2.4.7,2.4,2.1v.6c0,.3-.6.7-1.7,1.5h-5.1c-8.6.1-14.8.5-18.7,1.3-.8-.2-1.5-.7-2.1-1.7,0-3.2-.2-6.8-.4-10.9.2-8.7.2-15.4.2-20-1-9-1.5-16.7-1.5-23.2v-6.5c0-1,.4-1.8,1.5-2.3Z"/>
  <path d="M191.4,435.8h1c1.7,0,2.6,1.7,2.7,5.3.1,8,.9,26.6,2.4,56,0,.8-.5,1.5-1.6,2.1h-.7c-1.2,0-2-.5-2.3-1.4-1.3-23.8-2.2-43.9-2.8-60.4.4-1.1.8-1.6,1.3-1.6Z"/>
  <path d="M245,434.9c1.2.3,1.8.9,1.8,1.8-.9,8.6-1.4,17.6-1.6,27.1l2.1,33.8c-.3,1-1.1,1.6-2.5,1.6h-.7c-1.2-.5-1.8-1.3-1.8-2.5v-2.2c-1.1-12.5-1.6-22.4-1.7-29.5v-.9c0-4.2,0-9.9.2-17.2.2-.4.3-.7.3-.9v-.3h-.3c-4.2,6.4-9.1,12.4-14.5,18.3h-.3c-2.4,0-4.9-3-7.6-9.2-3.8-5.4-5.8-8.2-6.1-8.2.8,4.8,1.7,21.6,2.9,50.4.2,0,.3.7.4,2.2-1,.8-1.9,1.2-2.8,1.2-1.9,0-2.9-4.1-3-12.3-.9-29.1-2.3-45.9-4-50.4v-.6c.3-1,1.1-1.6,2.5-1.6h.7c5.5,5.3,11,12.8,16.6,22.6h.3l8.8-11.7c2-2.5,4.1-5.7,6.4-9.6,1-1.3,2.3-1.9,3.9-1.9Z"/>
  <path d="M259.8,435.1c3.6.6,8.8.8,15.5.8h3.7c1.8.2,2.8.9,2.8,2.1s-.7,1.5-2,2.1l-4.1-.3h-7.9c-1.1.1-2.9,0-5.2-.2,1,9.2,1.5,17.1,1.6,23.6v.3c2.7-.2,4.6-.3,5.9-.3h5.5c.5,0,1-.1,1.4-.3,1.4.4,2.2.9,2.4,1.5v1.5c0,1-3,1.5-8.9,1.6h-5.9v.3c.6,15.2.9,24.3.9,27.2h.3c.4-.2.8-.3,1.4-.3,2.9,0,7.5-.4,13.7-1,1.1.4,1.7,1,1.7,1.7,0,2-4.1,3-12.3,3.1-.6.2-3.3.3-7.9.4-1.1-.3-1.7-.9-1.7-2v-.3c0-.2.1-.3.3-.3,0-.2-.1-.3-.3-.3-.2-24.9-1.3-44.6-3.2-59.1.2-1.3,1-1.8,2.3-1.8Z"/>
  <path d="M318.9,434.6c1.4.5,2.1,1.2,2.2,2.1.1,15.9-.9,36.9-3,62.8l-1.4.9h-2.1c-1.8,0-5-9.8-9.4-29.6-3.6-10.3-6.5-17.9-8.6-22.9h-.3l.2,19.6c.1,6.7,0,16.7-.1,29.9l.3.6c-.5,1.3-1.1,2-1.7,2.1h-.7c-1.9,0-2.8-1.5-2.9-4.5.1-10.8.2-19.3.1-25.7v-9.1c-.1-5.4-.3-13.6-.6-24.4.5-1,.9-1.5,1.4-1.6h2.1c1.1,0,4.8,7.4,11,22.3,3.1,7.8,6,17.8,8.7,30.1h.4v-2.7c1.2-18.8,1.8-34.9,1.7-48.3.4-1,1.3-1.6,2.7-1.6Z"/>
  <path d="M359.5,435.7c1.8.3,2.7,1,2.7,2.3v.3c0,.3-.6.8-1.7,1.5h-13.7c0,.1-.7.4-.7.4.5,5.7.8,11.1.8,16.4l.2,27.3c0,3.1,0,8.2-.2,15.3l-1.4.9h-1.7c-.4,0-.8-.4-1.4-1.2v-2c-.1-11.5-.1-22.7.1-33.4-.4-15.5-.9-23.2-1.5-23.2s-5.3.2-13.7.7l-1-1.2v-1.5c0-1.4,7.8-2.1,23.5-2.2h6.5c.9,0,2-.2,3.2-.4Z"/>
  <path d="M388.2,432.1c7.7-.1,12.8,7.8,15.2,23.5,0,4.1.2,6.4.4,7,.1,13.8-2.2,24.5-6.9,31.9-2.9,3.3-6,5-9.5,5.1-8.8.1-14.6-3.6-17.4-11-1.4-4.6-2.1-9.7-2.2-15.2v-5.6c-.1-14.2,1.7-24.3,5.5-30.4,6.4-3.6,11-5.4,13.9-5.4h1ZM372.3,469.3c.1,12.7,2.1,20.6,6,23.6,0,.8,2.7,1.7,8.1,2.6h1.7c5.5,0,9-8.7,10.7-26.1,0-.9.1-3.1.3-6.7-.1-13.4-3-22-8.7-25.9-.7-.4-1.4-.6-2-.6h-.7c-2.6,0-6,1.3-10.1,3.9-2.7.6-4.5,10.4-5.3,29.2Z"/>
  <path d="M446.9,433.3h.7c9.6-.1,15.7,2.7,18.3,8.3.7,3.1,1.1,6.2,1.1,9.3.1,14.7-6.5,22.2-19.8,22.3h-2.7l-1.7-.3.2,22.7c0,1.1-.5,1.8-1.6,2.4h-.7c-1.6,0-2.4-.7-2.4-2l-.3-33.2c0-6.1-.2-14.4-.5-24.7,0-2.9,1.3-4.4,4-4.4,1-.3,2.8-.4,5.4-.4ZM444.9,437.4h-2.7c0,.6-.1,1.3-.3,2.1.5,7.1.8,15.6.8,25.3v4.4h.3c.9,0,2.2.1,3.7.3,10.4-.1,15.5-5.9,15.4-17.6v-4.4c0-4.9-2.4-8.1-7.2-9.6l-5.7-.8c-1.4.2-2.8.3-4.3.3Z"/>
  <path d="M500.6,432.2c3.1,0,5.1.9,6.1,2.8.9,2.7,1.4,5.6,1.4,8.8-.1,2.5-.1,4.7-.1,6.6v1.1c.1,16.1.7,30.5,1.8,43.2-.4,1-1.3,1.6-2.5,1.6s-2.3-1.4-2.3-4.4c-.6-9-1-15.9-1.1-20.5-5.3.8-12.6,1.2-22.1,1.3h-1.2c-.6,5.9-.9,11.3-.8,16,.1,3.9.3,6.4.5,7.6-.4,1.1-1.1,1.7-2.3,1.7h-.3c-1.6,0-2.3-1.8-2.4-5.4,0-.4-.1-1.8-.2-4.2,0-4,.6-13.2,1.8-27.6-.1-8.7,1.2-15.6,3.8-20.8,2-2.9,3.9-4.6,5.9-5.1,5.6-1.8,10.3-2.7,14-2.7ZM480.9,468.9c9-.1,16.6-.6,22.7-1.5,0-1-.1-4.8-.2-11.5v-13c0-4.5-.7-6.8-2-6.8h-.3c-4.9,0-9.6,1.1-14.3,3.1-2.3,2.7-3.6,5.4-4,8.2-.8,2.6-1.3,9.5-1.7,20.8-.1,0-.2.3-.2.7Z"/>
  <path d="M527.4,433.6c10.5-.1,17.1,3.8,19.8,11.5.5,1.9.7,3.7.7,5.3,0,7.9-4.2,14-12.8,18.2,5.7,9.5,10.2,18.5,13.5,27.1v.6c-.6,1-1.5,1.5-2.7,1.5s-3.4-4.2-6.6-12.5l-8.6-15.4c-2.3.2-4,.3-5.1.3h-1.4c0,1.1,0,3.5.4,7l-1.2,15.2v5.9c0,.3-.4.7-1.4,1.2h-.7c-1.8,0-2.7-1.7-2.8-5.2l1.2-17c-.6-12-.8-19.3-.9-21.9l.2-7.4c0-9,1-13.5,3.3-13.5,1.8-.6,3.5-.9,5.1-.9ZM524,438c-.4,6.2-.6,11-.6,14.3s.3,7.8.8,14l.7-.3h1.7c8.3-.1,13.8-4.2,16.6-12.4,0-.3,0-1.5.3-3.5,0-6.3-3.5-10.3-10.3-11.9-1.7-.4-3.3-.6-4.8-.5h-2l-2.4.3Z"/>
  <path d="M583.1,431.5c3.1,0,5.1.9,6.1,2.8.9,2.7,1.4,5.6,1.4,8.8,0,2.5,0,4.7,0,6.6v1.1c0,16.1.7,30.5,1.8,43.2-.4,1-1.3,1.6-2.5,1.6s-2.3-1.4-2.3-4.4c-.6-9-1-15.9-1.1-20.5-5.3.8-12.6,1.2-22.1,1.3h-1.2c-.6,5.9-.9,11.3-.8,16,0,3.9.3,6.4.5,7.6-.4,1.1-1.1,1.7-2.3,1.7h-.3c-1.6,0-2.3-1.8-2.4-5.4,0-.4,0-1.8-.2-4.2,0-4,.6-13.2,1.8-27.6,0-8.7,1.2-15.6,3.8-20.8,2-2.9,3.9-4.6,5.9-5.1,5.7-1.8,10.3-2.7,14-2.7ZM563.4,468.2c9-.1,16.6-.6,22.7-1.5,0-1,0-4.8-.2-11.5v-13c0-4.5-.7-6.8-2-6.8h-.3c-4.9,0-9.6,1.1-14.3,3.1-2.3,2.7-3.6,5.4-4,8.2-.8,2.6-1.3,9.5-1.7,20.8-.1,0-.2.3-.2.7Z"/>
  <path d="M634.9,431.8h.7c9.6-.1,15.7,2.7,18.3,8.3.7,3.1,1.1,6.2,1.1,9.3,0,14.7-6.5,22.2-19.8,22.3h-2.7l-1.7-.3.2,22.7c0,1.1-.5,1.8-1.6,2.4h-.7c-1.6,0-2.4-.7-2.4-2l-.3-33.2c0-6.1-.2-14.4-.5-24.7,0-2.9,1.3-4.4,4-4.4,1-.3,2.8-.4,5.4-.4ZM632.9,435.9h-2.7c0,.6,0,1.3-.3,2.1.5,7.1.8,15.6.8,25.3v4.4h.3c.9,0,2.2.1,3.7.3,10.4-.1,15.5-5.9,15.4-17.6v-4.4c0-4.9-2.4-8.1-7.2-9.6l-5.7-.8c-1.4.1-2.9.2-4.3.3Z"/>
  <path d="M665.1,431.8c3.6.6,8.8.8,15.5.8h3.7c1.8.2,2.8.9,2.8,2.1s-.7,1.5-2,2.1l-4.1-.3h-7.9c-1.1.1-2.9,0-5.2-.2,1,9.2,1.5,17.1,1.6,23.6v.3c2.7-.2,4.6-.3,5.9-.3h5.5c.5,0,1-.1,1.4-.3,1.4.4,2.2.9,2.4,1.5v1.5c0,1-3,1.5-8.9,1.6h-5.9v.3c.6,15.2.9,24.3.9,27.2h.3c.4-.2.8-.3,1.4-.3,2.9,0,7.5-.4,13.7-1,1.1.4,1.7,1,1.7,1.7,0,2-4.1,3-12.3,3.1-.6.2-3.3.3-7.9.4-1.1-.3-1.7-.9-1.7-2v-.3c0-.2,0-.3.3-.3,0-.2,0-.3-.3-.3-.2-24.9-1.3-44.6-3.2-59.1.2-1.3,1-1.8,2.3-1.8Z"/>
  <path d="M705.9,432.1c10.5-.1,17.1,3.8,19.8,11.5.5,1.9.7,3.7.7,5.3,0,7.9-4.2,14-12.8,18.2,5.7,9.5,10.2,18.5,13.5,27.1v.6c-.6,1-1.5,1.5-2.7,1.5s-3.4-4.2-6.6-12.5l-8.6-15.4c-2.3.2-4,.3-5.1.3h-1.4c0,1.1,0,3.5.4,7l-1.1,15.3v5.9c0,.3-.4.7-1.4,1.2h-.7c-1.8,0-2.7-1.7-2.8-5.2l1.2-17c-.6-12-.8-19.3-.9-21.9v-7.3c-.2-9,.9-13.5,3.2-13.5,2.1-.8,3.8-1.1,5.3-1.1ZM702.6,436.5c-.4,6.2-.6,11-.6,14.3s.3,7.8.8,14l.7-.3h1.7c8.3-.1,13.8-4.2,16.6-12.4,0-.3,0-1.5.3-3.5,0-6.3-3.5-10.3-10.3-11.9-1.7-.4-3.3-.6-4.8-.5h-2l-2.4.3Z"/>
  <path d="M745,431.8c10.5-.1,17.1,3.8,19.8,11.5.5,1.9.7,3.7.7,5.3,0,7.9-4.2,14-12.8,18.2,5.7,9.5,10.2,18.5,13.5,27.1v.6c-.6,1-1.5,1.5-2.7,1.5s-3.4-4.2-6.6-12.5l-8.6-15.4c-2.3.2-4,.3-5.1.3h-1.4c0,1.1,0,3.5.4,7l-1.2,15.2v5.9c0,.3-.4.7-1.4,1.2h-.7c-1.8,0-2.7-1.7-2.8-5.2l1.2-17c-.6-12-.8-19.3-.9-21.9v-7.3c-.2-9,.9-13.5,3.2-13.5,2.2-.7,3.9-1,5.4-1ZM741.6,436.2c-.4,6.2-.6,11-.6,14.3s.3,7.8.8,14l.7-.3h1.7c8.3-.1,13.8-4.2,16.6-12.4,0-.3,0-1.5.3-3.5,0-6.3-3.5-10.3-10.3-11.9-1.7-.4-3.3-.6-4.8-.5h-2l-2.4.3Z"/>
  <path d="M794.1,428.8c7.7-.1,12.8,7.8,15.2,23.5,0,4.1.2,6.4.4,7,0,13.8-2.2,24.5-6.9,31.9-2.9,3.3-6,5-9.5,5.1-8.8.1-14.6-3.6-17.4-11-1.4-4.6-2.1-9.7-2.2-15.2v-5.6c0-14.2,1.7-24.3,5.5-30.4,6.4-3.6,11-5.4,13.9-5.4h1ZM778.1,466c0,12.7,2.1,20.6,6,23.6,0,.8,2.7,1.7,8.1,2.6h1.7c5.5,0,9-8.7,10.7-26.1,0-.9,0-3.1.3-6.7,0-13.4-3-22-8.7-25.9-.7-.4-1.4-.6-2-.6h-.7c-2.6,0-6,1.3-10.1,3.9-2.7.7-4.4,10.4-5.3,29.2Z"/>
  <path d="M831.9,430.4c5.5,0,9.4,2,11.9,6,.7,1.2,1,3,1.1,5.6,0,7.4-.7,11-2.3,11.1h-.6c-1.6-.3-2.4-.9-2.4-1.7.4-4.7.6-8,.6-9.9v-.3c0-4.5-3-6.7-8.9-6.6-4.8,0-7.1,3.6-7.1,10.8v7c0,4.8,2.1,7.3,5.9,7.2,9.2.7,13.9,2.1,13.9,4.3,1.8,1.9,2.8,5.3,2.8,10.5v1.7c0,8.1-1.4,13.2-4.3,15.5-4.4,3.1-8.7,4.7-12.8,4.7-6.8.1-10.2-3.8-10.3-11.6,0-4.8.6-7.3,2-7.3h1.4c.4,0,.9.6,1.7,1.7l-.3,2.1v2.9c0,5.4,1.9,8.1,5.5,8.1s7.9-1.8,10.8-5.3c1.1-2.7,1.6-6.3,1.6-10.8v-1.7c0-6.8-2.2-10.2-6.5-10.1-6.5.1-11.1-1.1-13.5-3.4-1.6-1.4-2.4-5.6-2.5-12.5v-3.5c-.2-9.7,3.9-14.5,12.3-14.5Z"/>
  <path d="M902.9,430.9c1.6,0,2.4.7,2.4,2v.3l-13.1,23.9c.5,4.3.9,11.5,1.2,21.4,0,10.4-.4,15.6-1.6,15.6-.4.2-.8.3-1.4.3h-.7l-1.4-.9c.2-8.1.2-12.9.2-14.4,0-14-.9-22-2.2-23.8l-9.1-22v-.9c0-.3.4-.7,1.4-1.2h2c.9.4,3.4,6,7.7,16.7.9,2.4,1.4,3.8,1.4,4.1h.3c5.8-11.4,9.7-18.5,11.8-21.2h1.1Z"/>
  <path d="M960.8,428.6c7.7-.1,11.6,2.6,11.7,7.8.2,0,.3.9.4,2.6v8.8c0,1.6-.8,2.3-2.6,2.4-1.4-.4-2.1-1.1-2.1-2s0-3.2.3-6.2c0-6.1-1.3-9.1-3.9-9.1-1.6-.2-2.8-.3-3.7-.3h-1c-7.1.2-11.7,1.5-13.7,4-3.6,9.2-5.3,19.6-5.2,31.2,0,14.3,3.6,21.4,10.5,21.4,3,.6,6.6.8,10.6.8s2.4-1.3,2.4-3.8c.2-.3.3-5.7.2-16.2-7.3-.6-11.1-1-11.3-1.4-.5-.6-.7-1.2-.7-1.7s.7-1.1,2-1.8c9.8.3,14.7,1.3,14.7,2.8.2,1.7.4,2.7.4,2.9,0,14.9-1.1,22.4-3.6,22.4-1.1.4-3.1.7-5.8.9-10.5.1-17.2-2.1-19.9-6.6-2.5-4.3-3.8-10.3-3.9-18.2v-4.4c0-12.7,2.1-23.2,6.6-31.5,3.3-3.1,9.3-4.7,17.6-4.8Z"/>
  <path d="M1009.1,428c3.1,0,5.1.9,6.1,2.8.9,2.7,1.4,5.6,1.4,8.8,0,2.5,0,4.7,0,6.6v1.1c0,16.1.7,30.5,1.8,43.2-.4,1-1.3,1.6-2.5,1.6s-2.3-1.4-2.3-4.4c-.6-9-1-15.9-1.1-20.5-5.3.8-12.6,1.2-22.1,1.3h-1.2c-.6,5.9-.9,11.3-.8,16,0,3.9.3,6.4.5,7.6-.4,1.1-1.1,1.7-2.3,1.7h-.3c-1.6,0-2.3-1.8-2.4-5.4,0-.4,0-1.8-.2-4.2,0-4,.6-13.2,1.8-27.6,0-8.7,1.2-15.6,3.8-20.8,2-2.9,3.9-4.6,5.9-5.1,5.7-1.7,10.4-2.6,14-2.7ZM989.5,464.7c9-.1,16.6-.6,22.7-1.5,0-1,0-4.8-.2-11.5v-13c0-4.5-.7-6.8-2-6.8h-.3c-4.9,0-9.6,1.1-14.3,3.1-2.3,2.7-3.6,5.4-4,8.2-.8,2.6-1.3,9.5-1.7,20.8-.2,0-.2.3-.2.7Z"/>
  <path d="M1055.2,430c1.8.3,2.7,1,2.7,2.3v.3c0,.3-.6.8-1.7,1.5h-13.7c0,.1-.7.4-.7.4.5,5.7.8,11.1.8,16.4l.2,27.3c0,3.1,0,8.2-.2,15.3l-1.4.9h-1.7c-.4,0-.8-.4-1.4-1.2v-2c0-11.5,0-22.7,0-33.4-.4-15.5-.9-23.2-1.5-23.2s-5.3.2-13.7.7l-1-1.2v-1.5c0-1.4,7.8-2.1,23.5-2.2h6.5c1,0,2-.2,3.2-.4Z"/>
  <path d="M1084,426.4c7.7-.1,12.8,7.8,15.2,23.5,0,4.1.2,6.4.4,7,0,13.8-2.2,24.5-6.9,31.9-2.9,3.3-6,5-9.5,5.1-8.8.1-14.6-3.6-17.4-11-1.4-4.6-2.1-9.7-2.2-15.2v-5.6c0-14.2,1.7-24.3,5.5-30.4,6.4-3.6,11-5.4,13.9-5.4h1ZM1068,463.7c0,12.7,2.1,20.6,6,23.6,0,.8,2.7,1.7,8.1,2.6h1.7c5.5,0,9-8.7,10.7-26.1,0-.9,0-3.1.3-6.7,0-13.4-3-22-8.7-25.9-.7-.4-1.4-.6-2-.6h-.7c-2.6,0-6,1.3-10.1,3.9-2.7.6-4.4,10.4-5.3,29.2Z"/>
  <path d="M1121.8,428c5.5,0,9.4,2,11.9,6,.7,1.2,1,3,1.1,5.6,0,7.4-.7,11-2.3,11.1h-.6c-1.6-.3-2.4-.9-2.4-1.7.4-4.7.6-8,.6-9.9v-.3c0-4.5-3-6.7-8.9-6.6-4.8,0-7.1,3.6-7.1,10.8v7c0,4.8,2.1,7.3,5.9,7.2,9.2.7,13.9,2.1,13.9,4.3,1.8,1.9,2.8,5.3,2.8,10.5v1.7c0,8.1-1.4,13.2-4.3,15.5-4.4,3.1-8.7,4.7-12.8,4.7-6.8.1-10.2-3.8-10.3-11.6,0-4.8.6-7.3,2-7.3h1.4c.4,0,.9.6,1.7,1.7l-.3,2.1v2.9c0,5.4,1.9,8.1,5.5,8.1s7.9-1.8,10.8-5.3c1.1-2.7,1.6-6.3,1.6-10.8v-1.7c0-6.8-2.2-10.2-6.5-10.1-6.5.1-11.1-1.1-13.5-3.4-1.6-1.4-2.4-5.6-2.5-12.5v-3.5c-.2-9.6,3.9-14.4,12.3-14.5Z"/>
  <path d="M175.6,18.5c-5.5-4.2-14.4-2.8-22.4-.9-15,3.6-17.8,17.4-19.9,28-3.6,18-7.2,36-10.8,54-5.7,28.7-11.4,57.3-17.3,85.9-1.1,5.3-3.1,10.4-5.2,15.9-.4,1.1-.8,2.2-1.3,3.3-1.3-2.8-2.7-5.5-4.1-8.2-4.9-9.8-10-20-13.6-30.2-5-14.1-9.4-28.8-13.6-42.9-3.3-11-6.6-22.1-10.2-33-4-11.9-10.3-15.7-15-16.8-4.6-1.1-11.9-.6-20.6,8-5.8,5.7-11.3,16-9.9,23.7l1,5.5c3.6,20.3,7.4,41.2,15.6,60.2,9.7,22.4,20.9,44.4,31.7,65.8,7.6,15,15.5,30.4,22.7,45.9,4.6,9.9,10.8,18.8,23.6,18.8s3.8-.2,5.9-.6c15.3-2.8,23.6-11.5,26.2-27.2,3.6-21.3,7.8-42.9,11.9-63.9,2.2-11.2,4.4-22.4,6.5-33.7l1.8-9.8c7.7-41,15.7-83.4,22.9-125.2,1.1-6.7,0-18.1-5.9-22.6Z"/>
  <path d="M463,232.5c-6.1-44.1-10.1-83.9,2.5-123.9,2.9-9.3,5-18.9.4-26.1s-14.3-9.3-24.1-10.5c-31.3-3.9-60.2,6.9-85.6,32.4-22.7,22.7-24.9,56.9-5.5,83.1,14.5,19.6,32.3,24.6,54.3,15.3,4.4-1.9,8.7-4.1,13.5-6.6.5-.2,1-.5,1.4-.8.3,1.9.6,3.7,1,5.4,1.5,8.6,2.9,16.1,3.6,23.7l1.8,17.3c2.3,21.5,4.6,43.8,5,65.6.1,7.8-2.1,13.5-6.2,15.6-4.1,2.2-10.3.9-16.8-3.6-6.7-4.7-12.8-11.3-18.6-17.7l-4.2-4.5c-4-4.3-14.6-15.7-28.3-5.2-13.8,10.5-5.5,24.6-2.8,29.3,11.7,19.9,30,31.7,52.8,34.2,3.8.4,7.3.6,10.8.6,15.7,0,28.1-4.2,36.9-12.5,10.9-10.3,16-26.5,15-48.2-.9-19.5-3.6-39.1-6.2-58l-.7-4.9ZM398.3,172.2c-1.7,2.1-3.9,3.1-6.2,2.8-3-.3-5.9-2.7-7.6-6.2-2.7-5.5-4.5-11.6-6.4-18-.7-2.5-1.4-5-2.2-7.5,1.8-16.2,19.4-35.6,33.7-36.9,3.8-.4,8.9.3,9.8,9,2,19-4.7,37-21.1,56.8Z"/>
  <path d="M1190.3,81.7c-25.4-4.5-50.5.5-74.6,14.9-16.1,9.6-10,24.1-6.7,31.9,2.1,5,5.2,8.4,9.3,10.1,4.7,1.9,10.3,1.4,17.1-1.6,2-.9,4-1.8,6-2.7,5.9-2.7,11.5-5.2,17.3-6.7,11.2-2.7,20.1-3.8,27.9-3.4,3.8.2,6.9,1.3,6.5,13.2-.2,4.9-1.5,7-7.8,6.8-6.2-.2-12.4,0-18.4.6-30.8,2.8-53.1,14.8-68.1,36.8-12,17.5-14.7,40.8-6.7,59.2,7.4,17.2,23.4,28.6,45,32.1,5.4.9,10.9,1.5,16.4,2.2l9.3,1.2c11,1.4,19.7,2.5,25.9,11.9,4.1,6.2,8.9,7.3,11.9,7.3h.8c5.4-.4,10.3-4.4,13.5-11,2.5-5.2,4.1-10.8,4.7-16.3,3.1-29.7,6.1-59.4,9.4-92.5l3.6-36.1v-.4c.8-30.7-15.4-52.7-42.3-57.5ZM1188.3,187.6c-1.4,15.2-3.2,32.7-7,48.3-.9.9-5,2.2-7.4,3-1.6.5-3.2,1.1-4.7,1.6-3.5-.9-6.9-1.7-10.2-2.5-7.8-1.9-15.1-3.7-21.9-6.3s-11.2-7-12.4-12.3c-1.2-5.3.9-11.2,6-16.5,11.2-11.8,26.3-14.2,42.2-16.7,4.2-.7,8.4-1.3,12.6-2.2,1.1,1.2,2.6,3.1,2.8,3.6Z"/>
  <path d="M282.6,92.1c-24.3-3.4-47.3.6-68.1,12.1-14.8,8.1-18.5,18.3-12.1,33.9,6.7,16.4,18.9,12.1,26.2,9.5,1.3-.5,2.6-.9,4.5-1.5,15-4.5,30.5-9.1,45.8-11.4,3.5-.5,4.9.7,5.4,1.1,2,1.8,3.2,5.8,3.2,10.9s-.6,5.4-1.9,6.6c-1.3,1.2-3.8,1.8-7.4,1.7-8.1-.3-15.9.4-22.6,1.1-26.7,2.8-47.8,14.8-62.7,35.7-12.4,17.3-15.6,37.6-8.8,55.6,6.6,17.6,21.9,30.3,41.8,34.8,6.3,1.4,12.7,2.2,18.9,2.9,6.5.8,12.7,1.5,18.7,2.9,6,1.5,12.3,5,16.8,9.4,3.7,3.6,9.1,8.1,15,8.1s1.7-.1,2.5-.3c6.8-1.5,10.2-8.5,12.1-13.6,1.6-4.4,2.8-9.3,3.4-14.8,1.1-10.9,2.2-21.9,3.2-32.8,1.5-15.3,3-30.5,4.7-45.7,1.1-9.3,2.6-18.8,4.1-27.9.7-4.3,1.4-8.6,2.1-12.9v-.4c.1,0,.1-.4.1-.4-.4-37.1-16.8-60.7-44.9-64.6ZM283.3,213.1c-.5,3.8-1.4,7.5-2.3,11.3-1,4.3-2.1,8.7-2.6,13.3-1.1,9.5-5.4,13-16.2,13.1-3.1-.8-6.3-1.5-9.4-2.3-7.3-1.7-14.3-3.3-20.9-5.8-7.5-2.8-12.3-7.5-13.4-13.2-1.2-5.9,1.6-12.2,7.8-18,4.4-4.1,10.8-6.8,16-8.7,5.1-1.9,10.5-3.1,16.1-4.4,2.4-.5,4.8-1.1,7.1-1.7,5-1.2,8.5-1.7,11-1.7s4.5.6,5.3,1.3c1.5,1.4,3,5.4,1.5,16.8Z"/>
  <path d="M924.1,217.2c-5.1-1.2-9.4,1.5-12.9,3.7-1.2.7-2.3,1.5-3.4,1.9-1.7.7-3.4,1.3-5.1,2-9.9,4-18.4,7.6-27.2,3.1-5.7-2.9-10.5-7.1-12.7-11.1,1.2-2.1,5.2-6.7,9.1-9.6,8.8-6.7,17.9-13,27-19.4,7.7-5.4,15.5-10.9,23.1-16.5,10.7-7.9,15.1-18,13.3-30-5.7-37-44.3-66.7-82.3-63.4-34,2.9-57.5,32.3-57.1,71.6h0c.3,31.4,9,63.3,22.8,83.2,15.3,22.1,41.2,34.5,66.8,34.5s25.2-3,36.5-9.3c6.2-3.5,10.9-9.9,12.8-17.2,1.6-6,.9-11.8-1.9-16.3-2.5-4-5.4-6.4-8.8-7.2ZM849.2,168.3c-3.7.1-5.4-1.1-6.4-2.1-2.2-2.1-4.8-7.1-4.8-19.1s2.2-16.7,6.8-21.3c4.1-4.1,10.1-6.2,17.9-6.2h.2c8.9,0,16.8,2.7,21.5,7.4,1.9,1.9,4.2,5.1,4.1,9.4-.2,15.8-19.2,31.3-39.3,31.9Z"/>
  <path d="M584.8,82.2c-12.3-10.9-25.7-15.6-38.7-13.5-12.9,2-24.5,10.8-32.6,24.7-1.8,3.1-3.8,6.1-5.8,9-3.7,5.5-7.5,11.1-10.2,17.5-6.9,16.4-11.5,27.3-16.7,50.6l-1,4.6,1.5.5c.1.6.2,1.1.4,1.6-.1,36.5,14.3,63.7,42.9,80.9,8.1,4.8,18.9,7.6,29.5,7.6s22.8-3.3,29.8-10.6c31.3-32.6,43.9-65.7,38.4-101.3-4.7-29.6-17.3-53.7-37.5-71.6ZM581.9,183.8c0,11.8-4.5,19.5-13.3,23.6-13.1,6-26.4,4.2-39.7-5.6-10.3-7.5-13.4-19-8.4-30.8,6.6-15.5,15.4-30.3,25.5-43,2.9-3.6,5.5-5.5,7.7-5.5h0c2.6,0,6.1,2.5,10,7.3,12.5,15.1,17.9,31.2,18.2,54Z"/>
  <path d="M1051.8,176.2c15.5-1.5,28.5-4.1,39.9-7.8,6.7-2.2,13.2-13.6,12.2-20.8-1-7.1-12.2-13.4-19.1-13.8-9.7-.5-19.3.3-27.8,1-3.1.3-6,.5-8.7.7h-.7c-5.8,1.3-7.3.2-7.4,0-.4-.4-.9-1.7-.7-4.2.3-4.9.5-9.9.8-14.8.7-14.6,1.4-29.7,3.4-44.2,1.9-13.8-3.4-22.1-16.2-25.3-7.7-1.9-15.1-.8-20.7,3.1-5.7,4-9.2,10.7-10,18.8-1.4,15.6-1.8,31.4-2.2,46.7l-.2,6.8c-.5,17.7-1.5,19-17.7,22.3-3,.6-6.2.9-9.3,1.3-6.3.7-12.7,1.4-18.7,4.1-7.1,3.2-12.3,12.3-14.1,19.5-.5,1.9,0,3.9,1.3,6,2.5,3.7,10,9.7,16.1,10.5,9.6,1.2,19.6-.1,28.9-1.7,4.7-.8,8-.5,10,1s3.3,4.9,3.7,10c2.4,24.4,5.2,49.1,8,73l.4,3.6c.4,3.6.8,7.1,1.2,10.7,1.3,12.2,2.6,24.9,5.8,37,2.2,8.2,13.8,14.9,21.1,16.1,1,.2,2,.2,2.9.2,4,0,6.7-1.4,8.3-2.8,5-4.1,5.9-11.4,6.1-17.9.2-5.8,0-11.1-.4-16.1-1.4-14.2-2.9-28.4-4.4-42.7-2.2-21.1-4.4-42.1-6.4-63.2q-1.4-15.6,14.6-17.1Z"/>
  <path d="M767.3,212.5c-1-12.7-2.1-25.7-4.2-38.6-2.5-15.6-7.2-32.3-13.7-49.7-3.7-9.9-10.3-16.4-18.4-18.4-8.3-2-17.2,1-25.3,8.3-5.4,5-9.5,11.1-13.5,17.1-1.7,2.5-3.4,5.1-5.1,7.5l-3.5,4.7c.2-4,.3-8.1.8-12,1.8-13.7-2.4-20.8-6.2-24.3-3.3-3-9.4-6.2-19.7-3.9-16.2,3.6-15.9,19.2-15.7,24.4.7,29.8,1.9,61.7,3.5,97.4.3,7.3,1,22.5,17.4,24.7,16.6,2.3,22.5-12.9,24.4-17.9,2.4-6.2,4.6-12.4,6.9-18.6,3.6-9.9,7.3-20.1,11.4-30,2.8-6.8,6.5-13.6,10-20.2.6-1.1,1.2-2.2,1.8-3.3.7,2.5,1.4,4.8,1.6,7.1,2.9,25.9,5.7,51.7,8.2,77.7.6,5.6,1.9,12.6,7.1,16.8,2.8,2.2,6.3,3.3,10.6,3.3s2.7-.1,4.1-.3c15.3-2.1,21.8-10.2,20.1-24.8-1.2-8.8-1.9-17.9-2.6-27Z"/>
  <path d="M813.1,60.9c2.2,2.1,6.7,5.3,11.2,5.3s2.2-.2,3.2-.6c3.7-1.6,4.9-5.5,6-9,.3-1,.6-1.9,1-2.8l.7-1.6-1.8-7.3c-1-4.3-2-8.4-3.3-12.5-1.9-5.8-4.9-9.5-9-11.1-3.8-1.5-8.1-.9-12.7,1.7-5.1,3-8.2,6.7-9.3,11.1-1,4.2,0,8.6,3,13.2,3.8,5.8,7.3,10.1,11,13.6Z"/>
  <path d="M857,48.3l4.1,10.3,5.4-9.7c1.2-2.2,2.6-4.3,3.9-6.5,3.2-5.2,6.5-10.6,8.6-16.6,1.6-4.5.6-7.8-.5-9.8-2.8-5.1-9.2-7.1-15.1-8.5l-3.2-.7-2.1,2.5c-.8,1-2,2.1-3.1,3.1-3.5,3.4-7.6,7.2-6.8,12.1.9,6.3,3.5,12,6,17.5,1,2.1,1.9,4.2,2.8,6.3Z"/>
  <path d="M898,72.7c1.1.7,2.8,1.4,4.9,1.4s2.9-.3,4.6-1c.7-.3,17.4-7.4,18.1-17.8.4-6-4.2-10.9-8.6-15.7-1.5-1.6-3-3.2-4.2-4.8l-2.2-2.9-3.5.9c-9.3,2.5-14.9,12.5-14.6,26.2.2,7,2,11.5,5.5,13.7Z"/>
</svg>
